PathFileType	4	(X/Y/Z)	OpenSim_Sub07_CSStiffKnee_Gyro.trc
DataRate	CameraRate	NumFrames	NumMarkers	Units	OrigDataRate	OrigDataStartFrame	OrigNumFrames
100	100	20	8	m	100	3368	6734
Frame#	Time	torso_imu_offset_imu	pelvis_imu_offset_imu	tibia_r_imu_offset_imu	femur_r_imu_offset_imu	tibia_l_imu_offset_imu	femur_l_imu_offset_imu	toes_r_imu_offset_imu	toes_l_imu_offset_imu
				X1	Y1	Z1	X2	Y2	Z2	X3	Y3	Z3	X4	Y4	Z4	X5	Y5	Z5	X6	Y6	Z6	X7	Y7	Z7	X8		Y8	Z8	

3368	33.67000000	0.04481995	0.23352104	-0.08683020	0.01302468	0.21932054	0.23656219	2.00086878	2.31938813	3.27992332	0.44609667	-0.26120608	0.45039398	-0.04291502	0.12516676	0.56823090	0.00426111	-0.26716301	0.50715615	-0.13872228	3.71733545	0.80206397	-0.02877283	-0.04636588	0.12236531
3369	33.68000000	0.01702036	0.25396152	-0.07848497	-0.00332739	0.21453682	0.20151084	1.76664324	2.46754868	3.34276473	0.09572316	-0.21757094	0.37034956	-0.09058681	0.14185988	0.57830061	-0.08753215	-0.27182410	0.56285488	-0.15304667	3.66919562	0.82113104	-0.02947775	-0.03468387	0.13313998
3370	33.69000000	0.00945387	0.24425942	-0.07655742	-0.01027512	0.21434713	0.19336176	1.09192097	2.61150394	3.39181561	-0.22537408	-0.15341444	0.29421705	-0.06416190	0.12840803	0.58642936	-0.13402405	-0.28526833	0.56093871	-0.19515189	3.57698224	0.77174279	-0.00849985	-0.05990883	0.13722483
3371	33.70000000	-0.00429350	0.23042342	-0.07475254	-0.01252256	0.19817862	0.16880954	0.34841974	2.65911184	3.42439937	-0.54026495	-0.08262132	0.21424763	-0.03456242	0.12407815	0.58548777	-0.17647903	-0.30592765	0.55075753	-0.35045652	3.53424057	0.62525651	-0.02203398	-0.08129669	0.14090578
3372	33.71000000	-0.01422580	0.22304531	-0.06787077	-0.01448994	0.16983151	0.13375606	-0.22515597	2.59726054	3.40685668	-0.82426247	-0.04197256	0.12129517	-0.02075309	0.11143003	0.59195958	-0.23280495	-0.30417057	0.53748319	-0.55352066	3.61304469	0.32910938	0.01551970	-0.08075316	0.13216516
3373	33.72000000	-0.02725465	0.22572205	-0.06300226	-0.00123562	0.13519713	0.10054531	-0.54001055	2.53345421	3.34054336	-0.98522792	-0.05219736	0.01274001	0.01896861	0.13044141	0.61081597	-0.20519650	-0.29302397	0.53498888	-0.66488376	3.76465926	-0.05168900	0.04971794	-0.09785159	0.12313886
3374	33.73000000	-0.05466537	0.22915076	-0.06572113	0.01535603	0.11562525	0.06337364	-0.57613383	2.50572021	3.25059272	-1.01976632	-0.08618141	-0.13081966	0.08294750	0.16982781	0.61441770	-0.16278514	-0.27124899	0.56400284	-0.73973696	3.77008465	-0.41424213	0.06573372	-0.11612049	0.10854406
3375	33.74000000	-0.08336736	0.22797013	-0.07441697	0.03494844	0.11947201	0.02829959	-0.66290356	2.46524388	3.17001024	-0.99886490	-0.12594002	-0.30005227	0.11545440	0.19528083	0.59763747	-0.12872105	-0.27452364	0.55623368	-0.81230970	3.62741954	-0.71378440	0.08974188	-0.16466275	0.10676708
3376	33.75000000	-0.09641919	0.22257620	-0.08159838	0.07047448	0.13951511	-0.00290797	-0.95591183	2.35240157	3.06586336	-0.99853411	-0.16342036	-0.45799613	0.15482712	0.18603137	0.59868452	-0.11589867	-0.28783292	0.55923443	-0.85552917	3.48648925	-0.91876256	0.10399432	-0.17725939	0.10492829
3377	33.76000000	-0.11537950	0.21654497	-0.07104527	0.12082816	0.15948339	-0.02889608	-1.25733422	2.17839649	2.93167193	-0.96538008	-0.17840578	-0.56774876	0.15555554	0.19872480	0.64132409	-0.06899238	-0.26453134	0.56125703	-0.85238986	3.41367323	-0.98791153	0.13203197	-0.21303030	0.10367888
3378	33.77000000	-0.14191297	0.20889891	-0.05312785	0.16807253	0.16754178	-0.04450174	-1.40879548	1.96379338	2.74961182	-0.79956885	-0.14782995	-0.58540571	0.17365508	0.21920091	0.66496401	-0.00330507	-0.24079917	0.55402033	-0.78782155	3.37260031	-0.92715818	0.14771116	-0.20796927	0.09575568
3379	33.78000000	-0.16659801	0.20195738	-0.04258468	0.18873933	0.16113005	-0.04969445	-1.42131402	1.72810031	2.61043253	-0.54463949	-0.07712920	-0.49991264	0.20694871	0.24157278	0.67608992	0.05257872	-0.20509243	0.56004116	-0.67782124	3.28898798	-0.75985156	0.16011792	-0.25245325	0.09759201
3380	33.79000000	-0.19796611	0.19126078	-0.02830850	0.20119128	0.12127135	-0.04085696	-1.37128042	1.51435304	2.49447507	-0.37817653	-0.00147991	-0.32725012	0.24881312	0.25254058	0.67974449	0.11251851	-0.20537833	0.51272956	-0.59052485	3.09490108	-0.49968586	0.17797271	-0.28121223	0.10186202
3381	33.80000000	-0.22512926	0.18078466	-0.01082894	0.22107480	0.07033478	-0.00175064	-1.31048064	1.35791452	2.24035000	-0.33500121	0.03877909	-0.16638978	0.22159633	0.27866316	0.71283255	0.12533876	-0.19995004	0.48343514	-0.57113560	2.70752452	-0.19547735	0.20092194	-0.28761297	0.08993658
3382	33.81000000	-0.24653597	0.17346725	0.01120837	0.22613607	0.02895075	0.02529574	-1.22529785	1.16749802	2.05185466	-0.29631845	0.02822487	-0.09494230	0.22062061	0.29331928	0.75631914	0.14603015	-0.18580758	0.45575929	-0.55035615	2.14236503	0.07036639	0.27178876	-0.25829696	0.09385346
3383	33.82000000	-0.25780065	0.16466967	0.02449218	0.24999734	-0.01718212	0.05238973	-0.97823423	0.99145218	1.77911484	-0.15057849	-0.01149785	-0.10751790	0.21261428	0.29179774	0.76641617	0.16744281	-0.17277366	0.44014467	-0.50335083	1.55853546	0.28392120	0.25099662	-0.35070821	0.12212961
3384	33.83000000	-0.26992359	0.15929571	0.04532294	0.29092500	-0.05523275	0.07399562	-0.56313582	0.81513765	1.45542255	0.06857785	-0.07223813	-0.13845041	0.24581710	0.31009604	0.76697191	0.15511144	-0.19041804	0.43527559	-0.48085870	1.05194605	0.45890191	0.17607481	-0.42243866	0.13861017
3385	33.84000000	-0.27237364	0.14843807	0.07183163	0.32965796	-0.08738304	0.09633842	-0.07467535	0.60237106	1.10787513	0.27143498	-0.10756492	-0.15100166	0.27987199	0.35417525	0.82200615	0.07922184	-0.19749980	0.43995985	-0.49606260	0.72752153	0.61480101	0.27806585	-0.42929368	0.12333623
3386	33.85000000	-0.27261608	0.12948902	0.09864111	0.37103899	-0.11935082	0.11258429	0.38523085	0.38475901	0.75797242	0.35022969	-0.11307218	-0.14343030	0.26120671	0.39119879	0.88124669	0.03109231	-0.21790171	0.43463568	-0.51886608	0.66063210	0.73124914	0.27896526	-0.47607351	0.09391151
3387	33.86000000	-0.27939281	0.09253430	0.11775061	0.40871337	-0.13644401	0.11963831	0.71245565	0.18624193	0.38887636	0.28052030	-0.17752292	-0.13847228	0.22987150	0.42314265	0.91577251	-0.03063693	-0.22314613	0.42583761	-0.49171621	0.71135976	0.78945556	0.30538418	-0.52837214	0.07472672
